<svg width="80" height="96" viewBox="0 0 80 96" fill="none" xmlns="http://www.w3.org/2000/svg">
<path d="M39.8596 17.3039C39.6966 17.3039 39.5246 17.3039 39.3616 17.3039C38.8727 17.313 38.3746 17.322 37.8857 17.3492H37.8585H37.8494C37.7227 17.3582 37.605 17.3673 37.4782 17.3673H37.451H37.4239L37.279 17.3763H37.2518H37.2247H37.1975H37.1432H37.116H37.0888H37.0617H37.0345H37.0073H36.9983L36.7538 17.3945H36.7266H36.6995H36.6723H36.6451H36.618H36.5908H36.5637C36.464 17.4035 36.3554 17.4126 36.2558 17.4216H36.2286L36.1652 17.4307C26.9202 18.309 18.6168 22.4199 12.4142 28.6316C5.38765 35.6582 1.0413 45.3741 1.0413 56.0951C1.0413 66.8161 5.38765 76.532 12.4142 83.5586C19.4408 90.5852 29.1567 94.9315 39.8777 94.9315C50.5987 94.9315 60.3146 90.5852 67.3412 83.5586C74.3678 76.532 78.7142 66.8161 78.7142 56.0951C78.7142 45.3741 74.3678 35.6582 67.3412 28.6316C61.1296 22.4199 52.8262 18.309 43.5812 17.4307L43.5178 17.4216H43.4906L43.2099 17.3945H43.1828H43.1556H43.1285H43.1013H43.0741H43.047H43.0198H42.9926H42.9655L42.7934 17.3854H42.7663H42.7391H42.7119L42.4584 17.3673H42.4312H42.4041H42.3497H42.3226H42.2954C42.1596 17.3582 42.0328 17.3492 41.897 17.3401H41.8879H41.8608C41.3718 17.313 40.8828 17.3039 40.3848 17.2948C40.2218 17.2948 40.0498 17.2948 39.8868 17.2948L39.8596 17.3039ZM44.8851 4.93492V10.5671H47.665V7.89587C47.665 6.0034 46.8953 4.29202 45.6457 3.04244C44.3961 1.79287 42.6848 1.0232 40.7923 1.0232H37.9581C36.0656 1.0232 34.3543 1.79287 33.1047 3.04244C31.8551 4.29202 31.0854 6.0034 31.0854 7.89587V10.5671H33.8653V4.93492H34.8885V10.5671H37.1975V4.93492H38.2207V10.5671H40.5297V4.93492H41.5529V10.5671H43.8619V4.93492H44.8851ZM48.6882 7.89587V11.5812H30.0713V7.89587C30.0713 5.72269 30.9587 3.74873 32.3893 2.31805C33.82 0.88738 35.794 0 37.9672 0H40.8013C42.9745 0 44.9485 0.88738 46.3792 2.31805C47.8098 3.74873 48.6972 5.72269 48.6972 7.89587H48.6882ZM43.0379 13.1387H36.6814V16.4165C37.451 16.3531 38.2388 16.3169 39.0175 16.2988H39.0447H39.0719H39.099H39.1262H39.1534H39.1805H39.2077H39.2348H39.3526H39.3797H39.4069C39.5518 16.2988 39.6966 16.2988 39.8415 16.2988C39.9864 16.2988 40.1313 16.2988 40.2762 16.2988H40.3033H40.3305H40.4482H40.4754H40.5025H40.5297H40.5569H40.584H40.6112H40.6384H40.6655C41.4533 16.3169 42.232 16.3531 43.0017 16.4165V13.1387H43.0379ZM36.1743 12.1154H44.0611V16.5071C53.3876 17.485 61.7634 21.6774 68.0475 27.9615C75.2643 35.1783 79.7193 45.1386 79.7193 56.1494C79.7193 67.1602 75.2552 77.1205 68.0475 84.3373C60.8308 91.554 50.8704 96.009 39.8596 96.009C28.8489 96.009 18.8885 91.545 11.6717 84.3373C4.45499 77.1205 -1.52588e-05 67.1602 -1.52588e-05 56.1494C-1.52588e-05 45.1386 4.46405 35.1783 11.6717 27.9615C17.9558 21.6774 26.3316 17.485 35.6582 16.5071V12.1154H36.1652H36.1743ZM42.1686 51.7849C41.2088 51.2779 40.1041 51.1058 39.0628 51.2779C38.0396 51.4409 37.0617 51.9389 36.292 52.7448C35.5495 53.5235 35.1149 54.4833 34.979 55.4703C34.8432 56.4844 35.0153 57.5348 35.5133 58.4675L35.6853 58.8025L32.009 62.4788L33.9287 64.3079L37.4329 60.4686L37.777 60.6316C38.7278 61.0753 39.7781 61.202 40.7923 61.0119C41.7702 60.8308 42.7119 60.3418 43.4544 59.5631C44.2241 58.7572 44.6678 57.7521 44.7855 56.7289C44.9032 55.6786 44.6859 54.592 44.1426 53.6503L43.9524 53.3243L60.5772 35.0696L59.9615 34.481L42.5218 51.957L42.1867 51.7849H42.1686ZM38.8998 50.2728C40.0407 50.0826 41.2269 50.2366 42.3045 50.7165L59.9253 33.0594L61.9807 35.0153L45.1749 53.4601C45.7091 54.5105 45.9083 55.6876 45.7725 56.8285C45.6276 58.069 45.0934 59.2733 44.1698 60.2513C43.2733 61.193 42.1505 61.7725 40.9643 61.9989C39.8687 62.2071 38.7278 62.0985 37.6774 61.691L33.974 65.7567L30.5512 62.4969L34.4357 58.6033C33.9739 57.571 33.811 56.4392 33.9649 55.3345C34.1279 54.1392 34.6531 52.9802 35.5495 52.0385C36.4822 51.0606 37.6593 50.472 38.8998 50.2728ZM26.4222 35.3594L28.7402 34.0192L26.3497 29.8812L24.0317 31.2213L26.4222 35.3594ZM29.6819 34.6531L26.0509 36.7538L22.6463 30.85L26.721 28.4958L30.1256 34.3995L29.6819 34.6531ZM17.9106 44.8489L19.2507 42.5308L15.1126 40.1404L13.7725 42.4584L17.9106 44.8489ZM20.3826 42.6033L18.2818 46.2433L12.378 42.8387L14.7323 38.764L20.6361 42.1686L20.3826 42.6123V42.6033ZM15.2846 57.3175V54.6463H10.5127V57.3175H15.2846ZM16.3079 54.1392V58.3407H9.48951V53.6321H16.3079V54.1392ZM19.2507 69.4239L17.9106 67.1058L13.7725 69.4963L15.1126 71.8144L19.2507 69.4239ZM18.5444 66.1641L20.6451 69.7951L14.7414 73.1998L12.3871 69.1251L18.2909 65.7204L18.5444 66.1641ZM28.7402 77.9355L26.4222 76.5954L24.0317 80.7334L26.3497 82.0736L28.7402 77.9355ZM26.4946 75.4635L30.1256 77.5642L26.721 83.468L22.6463 81.1138L26.0509 75.21L26.4946 75.4635ZM41.1998 80.5614H38.5286V85.3333H41.1998V80.5614ZM38.0215 79.5382H42.223V86.3565H37.5144V79.5382H38.0215ZM53.3876 82.0736L55.7057 80.7334L53.3152 76.5954L50.9972 77.9355L53.3876 82.0736ZM56.6565 81.3673L53.0164 83.468L49.6118 77.5642L53.6865 75.21L57.0911 81.1138L56.6474 81.3673H56.6565ZM64.6248 71.8234L65.9649 69.5054L61.8268 67.1149L60.4867 69.4329L64.6248 71.8234ZM67.0968 69.5778L64.996 73.2088L59.0922 69.8042L61.4465 65.7295L67.3503 69.1341L67.0968 69.5778ZM69.2247 57.3265V54.6553H64.4527V57.3265H69.2247ZM70.2479 54.1483V58.3497H63.4295V53.6412H70.2479V54.1483ZM65.9649 42.4765L64.6248 40.1585L60.4867 42.549L61.8268 44.867L65.9649 42.4765ZM65.2586 39.2077L67.3594 42.8478L61.4556 46.2524L59.1013 42.1777L65.0051 38.7731L65.2586 39.2168V39.2077ZM55.7148 31.2394L53.3967 29.8993L51.0062 34.0373L53.3243 35.3775L55.7148 31.2394ZM53.4691 28.7674L57.1092 30.8681L53.7046 36.7719L49.6299 34.4177L53.0345 28.5139L53.4782 28.7674H53.4691ZM41.2179 26.6395H38.5467V31.4114H41.2179V26.6395ZM38.0396 25.6163H42.2411V32.4346H37.5325V25.6163H38.0396ZM39.8868 24.086C31.0311 24.086 23.0085 27.6808 17.2043 33.485C11.4001 39.2892 7.8053 47.3118 7.8053 56.1675C7.8053 65.0232 11.4001 73.0458 17.2043 78.85C23.0085 84.6542 31.0311 88.249 39.8868 88.249C48.7425 88.249 56.7651 84.6542 62.5693 78.85C68.3735 73.0458 71.9683 65.0232 71.9683 56.1675C71.9683 47.3118 68.3735 39.2892 62.5693 33.485C56.7651 27.6808 48.7425 24.086 39.8868 24.086ZM15.6197 31.8913C21.8313 25.6797 30.4154 21.8404 39.8868 21.8404C49.3673 21.8404 57.9423 25.6797 64.1539 31.8913C70.3656 38.103 74.2048 46.687 74.2048 56.1585C74.2048 65.6389 70.3656 74.2139 64.1539 80.4256C57.9423 86.6372 49.3582 90.4765 39.8868 90.4765C30.4063 90.4765 21.8313 86.6372 15.6197 80.4256C9.40802 74.2139 5.56875 65.6299 5.56875 56.1585C5.56875 46.678 9.40802 38.103 15.6197 31.8913Z" fill="#292929"/>
</svg>
